<svg xmlns="http://www.w3.org/2000/svg" viewBox="0 0 877.19 242.84"><defs><style>.cls-1{fill:#dcb59a;}.cls-2{fill:#b87d52;}.cls-3{fill:#9c6644;}.cls-4{fill:#874a22;}.cls-5{fill:#c19472;}.cls-6{fill:#985b2d;}.cls-7{fill:#010101;}.cls-8{fill:#020202;}.cls-9{fill:#030303;}.cls-10{fill:#fefefd;}</style></defs><g id="Layer_2" data-name="Layer 2"><g id="Layer_1-2" data-name="Layer 1"><path d="M279.81,208c0,10.49,0,21,0,31.46,0,1-.24,1.29-1.28,1.28q-19.38-.06-38.75,0c-1,0-1.28-.24-1.28-1.28,0-15.23,0-30.47.05-45.7,0-1.07-.22-1.36-1.33-1.35q-38.82,0-77.62,0c-1.45,0-1.46,0-1,1.34,3.09,9,9.55,14.21,18.58,16.34a42.5,42.5,0,0,0,23.52-.92,38.1,38.1,0,0,0,12.58-7.44c.74-.63,1.11-.59,1.77.09q10,10.49,20.09,20.88c.64.65.67,1,0,1.65-8.16,8.63-18.23,13.77-29.72,16.27a94.61,94.61,0,0,1-28.93,1.62,74.65,74.65,0,0,1-26.46-7.09c-16.77-8.26-27.79-21.28-31.87-39.64a61.38,61.38,0,0,1,3-37.21A55.61,55.61,0,0,1,141,133.47a64.7,64.7,0,0,1,27.82-11.25c14.15-2.14,28-1.07,41.21,4.74a55.68,55.68,0,0,1,28.1,26.46c.06.13.13.26.38.73V152.6c0-9.36,0-18.73,0-28.09,0-1.16.34-1.33,1.39-1.33q19.31,0,38.62,0c1,0,1.31.21,1.31,1.27,0,10.36,0,20.73,0,31.09a2.92,2.92,0,0,1-.14.6,57.5,57.5,0,0,0-5.22,20.24A61.79,61.79,0,0,0,279.81,208Zm-122.2-37.29h47a4.17,4.17,0,0,1,.5,0c.52,0,.59-.14.49-.65-1.52-7.35-5.31-13.11-12-16.78-5-2.79-10.51-3.2-16.12-2.55A23.18,23.18,0,0,0,157.61,170.74Z"/><path d="M41.28,164.18,79.4,127.11c1.34-1.3,2.52-3,4.14-3.71s3.61-.19,5.44-.19h43c-.1.55-.48.76-.75,1q-23.43,24.17-46.91,48.3c-.77.8-.75,1.25-.09,2.08q25.68,32.52,51.31,65.07l.8,1.07h-1.23q-23.81,0-47.62,0a2,2,0,0,1-1.76-.85Q70,220.23,54.24,200.57c-.26-.32-.53-.63-.49-.54q-6.06,5.76-12.14,11.52c-.43.42-.33.91-.33,1.39,0,8.87,0,17.73,0,26.6,0,.94-.18,1.24-1.19,1.23q-19.44-.06-38.87,0c-.94,0-1.24-.18-1.24-1.19Q0,160.29,0,81c0-1,.3-1.2,1.23-1.2q19.44,0,38.87,0c1,0,1.2.29,1.2,1.23q0,40.77,0,81.53Z"/><path class="cls-1" d="M757.75,150.53c1.1-1.55,2.16-3.13,3.3-4.65,7-9.36,16.19-15.81,27-20a68.43,68.43,0,0,1,19.38-4.32,87.63,87.63,0,0,1,12.23-.14,66.54,66.54,0,0,1,28.16,8A54.88,54.88,0,0,1,862,140.5a56,56,0,0,1,13.69,26.87,68.49,68.49,0,0,1,1.46,14.34c0,3.19-.34,6.38-.48,9.57-.05,1.21-.76,1.22-1.68,1.22q-38.43,0-76.86,0h-7.09a22.59,22.59,0,0,0,4.3,8.74c4.45,5.64,10.52,8.38,17.42,9.5a45.61,45.61,0,0,0,17.46-.53c5.85-1.31,10.86-4.3,15.44-8.06,1.29-1,1.26-1.1,2.45.12q8.43,8.7,16.85,17.41c1,1,1.89,2.1,2.92,3.07.68.65.62,1,0,1.72a53.49,53.49,0,0,1-19.73,13.23A75.21,75.21,0,0,1,830.57,242a95.06,95.06,0,0,1-16.94.63c-10.75-.53-21.19-2.65-30.9-7.47s-17.79-11.34-23.7-20.46c-.24-.37-.39-.85-.88-1-1.07-2-2-4.07-3.19-6a1.5,1.5,0,0,0-.05-.37,58.57,58.57,0,0,1-4.76-16.41,66.68,66.68,0,0,1-.1-17.85,55.06,55.06,0,0,1,3.55-13.8,1.54,1.54,0,0,0,.1-1C755.25,155.83,756.38,153.11,757.75,150.53Zm56.61,20.23h23.11c.54,0,1.14.1.94-.82-1.49-6.69-4.78-12.17-10.68-15.9-5.68-3.59-12-4.31-18.37-3.09-10.2,2-16.31,8.37-18.69,18.4-.33,1.4-.31,1.41,1.2,1.41Z"/><path class="cls-2" d="M579,180.47c.49.16.77-.22,1.11-.43,6.05-4,12.82-6,19.88-7.26,8.83-1.53,17.74-1.46,26.65-1.47,4.75,0,9.5-.05,14.24,0,1.25,0,1.41-.42,1.32-1.49a17.26,17.26,0,0,0-12.42-15.44A44.31,44.31,0,0,0,612.14,153,56,56,0,0,0,593,158.23a35.86,35.86,0,0,0-6.7,4.09c-.65.51-.94.46-1.33-.33q-6.45-13.08-13-26.13c-.37-.76-.27-1.12.45-1.58,7.68-4.88,16.11-7.84,24.9-10a114,114,0,0,1,32.71-2.94c9.61.51,19,2.21,27.77,6.41a45.45,45.45,0,0,1,14.41,10.75c0,6.09,0,12.19,0,18.29,0,1.09.22,1.52,1.42,1.48,2.78-.09,5.57,0,8.35,0,.34,2.3.7,4.59,1,6.89a77.1,77.1,0,0,1,.65,10.95q0,31.59,0,63.18c0,1.12-.25,1.47-1.43,1.46q-17.81-.08-35.62,0c-1.26,0-1.48-.38-1.47-1.54.07-4.4,0-8.81,0-13.56-.6,1-1,1.71-1.49,2.42-4.52,7.05-11.13,11.17-19.1,13a60.33,60.33,0,0,1-34.08-1.63,36,36,0,0,1-19.31-15c-.15-.36-.19-.82-.75-.79l0-.11c.12-.3.06-.52-.28-.6l0,0c.13-.55-.26-.94-.46-1.38a36.9,36.9,0,0,1-2.59-22.13,51.39,51.39,0,0,1,2.06-7,5.53,5.53,0,0,0,.48-.71,28.93,28.93,0,0,1,8.17-10C578.33,181.36,579,181.19,579,180.47Zm53,12.32c-2.41,0-4.83,0-7.24,0a34.24,34.24,0,0,0-10.59,1.48c-4.71,1.59-7.36,4.94-7.64,9.72A10.83,10.83,0,0,0,613,214.86a22.36,22.36,0,0,0,13.81,1.35c7.24-1.37,12.39-5.4,15.17-12.3a3.89,3.89,0,0,0,.33-1.58c0-2.83,0-5.66,0-8.48,0-.82-.22-1.09-1.05-1.07C638.19,192.82,635.11,192.79,632,192.79Z"/><path class="cls-3" d="M579,180.47c0,.72-.7.89-1.12,1.24a28.93,28.93,0,0,0-8.17,10,5.53,5.53,0,0,1-.48.71H494.41c-1.48,0-1.49,0-1,1.44a23.24,23.24,0,0,0,14,14.79c8.2,3.25,16.66,3.28,25.16,1.38,5.85-1.32,10.81-4.44,15.35-8.23.78-.65,1.18-.66,1.9.09q8.56,9,17.21,17.92a26.2,26.2,0,0,0,3.19,3.13l0,0a.59.59,0,0,0,.28.6l0,.11-.54.77a56.78,56.78,0,0,1-32.08,16.71c-15,2.65-29.95,2.31-44.52-2.51-16.63-5.5-29.35-15.73-36.77-31.88a58.92,58.92,0,0,1-5.12-25.33,61.52,61.52,0,0,1,4.37-23,4.38,4.38,0,0,0,.19-.71,69,69,0,0,1,10.46-16.17,67.88,67.88,0,0,1,12-9.92,66.17,66.17,0,0,1,26.26-9.6,75.65,75.65,0,0,1,23.27.07c19.67,3.27,35.15,12.79,44.63,30.81a57.3,57.3,0,0,1,6.15,21.94A47.61,47.61,0,0,1,579,180.47Zm-38.67-9.78C539,161,531,150.43,516.18,150.47c-13.22,0-22.26,9.28-23.79,20.22Z"/><path class="cls-4" d="M279.81,208a61.79,61.79,0,0,1-5.37-31.65,57.5,57.5,0,0,1,5.22-20.24,2.92,2.92,0,0,0,.14-.6c1.1-1.9,2.12-3.84,3.31-5.68,8.26-12.82,20.14-20.72,34.47-25.25a80.37,80.37,0,0,1,24.75-3.37,74,74,0,0,1,21.17,3,55.1,55.1,0,0,1,23.54,14,3.41,3.41,0,0,0,.48.37l0,19.71c-7.18,3.66-14.37,7.3-21.53,11-.87.45-1.14.27-1.55-.52a29.87,29.87,0,0,0-8.11-10c-5.73-4.41-12.29-5.64-19.24-4.5-9.73,1.61-16.39,7.12-19.57,16.53a36.5,36.5,0,0,0-.9,18.61,24.51,24.51,0,0,0,9,15.22C330.4,208.52,336,210,342,210a23.22,23.22,0,0,0,12.2-3.42,28.72,28.72,0,0,0,10.19-11.4c.43-.8.73-1,1.58-.51,2.74,1.48,5.53,2.87,8.31,4.28q6.6,3.36,13.23,6.68l0,19.7c-9.2,9.37-20.46,14.57-33.35,16.47a81.18,81.18,0,0,1-38.43-3.08c-15-5.1-26.85-14.2-34.6-28.25C280.67,209.63,280.24,208.83,279.81,208Z"/><path class="cls-5" d="M682,158.29c-2.78,0-5.57-.06-8.35,0-1.2,0-1.43-.39-1.42-1.48,0-6.1,0-12.2,0-18.29,0-3.21.1-6.41,0-9.61,0-1.21.38-1.43,1.48-1.42,4.79,0,9.58,0,14.37,0,1.21,0,1.42-.38,1.41-1.47,0-9.28,0-18.56,0-27.84,0-1.06.21-1.41,1.35-1.4q19.24.06,38.49,0c1.12,0,1.47.25,1.46,1.43,0,9.32,0,18.64,0,28,0,1,.28,1.32,1.32,1.32,8.08,0,16.16,0,24.24,0,1.1,0,1.48.22,1.47,1.41,0,7.2,0,14.4,0,21.6-1.37,2.58-2.5,5.3-4,7.79-7.16,0-14.32,0-21.49,0-1.24,0-1.49.36-1.48,1.53q.06,18.1,0,36.2a37.22,37.22,0,0,0,.22,4.23c.63,5.45,4.1,9.4,9.48,10.31A20.88,20.88,0,0,0,755,207.72c1.23,1.91,2.12,4,3.19,6l5.31,15.17c.74,2.12,1.48,4.24,2.26,6.34.23.62.12.92-.48,1.25a50.55,50.55,0,0,1-17,5.5,73.46,73.46,0,0,1-14.44.72c-7.48-.29-14.81-1.48-21.7-4.6-11.41-5.17-18.35-14-21.1-26.14a65.75,65.75,0,0,1-1.5-14.6q0-18.79,0-37.58c0-1.09-.21-1.53-1.41-1.47C686.07,158.39,684,158.3,682,158.29Z"/><path class="cls-6" d="M387.49,158.35l0-19.71c0-4.74,0-9.49,0-14.23,0-1,.29-1.25,1.26-1.24q18.44,0,36.87,0c1,0,1.22.36,1.21,1.29-.05,3.7,0,7.41,0,11.11v1.17c.45.19.56-.11.69-.28,6.52-7.72,15.06-11.85,24.78-13.86a67.94,67.94,0,0,1,12.89-1.35c1,0,1.28.25,1.27,1.23,0,6,0,12.07,0,18.1,0,.34,0,.67,0,1A69,69,0,0,0,456,157.74a31.23,31.23,0,0,0-13.77,3c-6.91,3.4-10.86,9.06-12.47,16.47a46.53,46.53,0,0,0-1,9.91q0,26.08,0,52.17c0,1.21-.29,1.49-1.49,1.49q-19.18-.08-38.35,0c-1.26,0-1.49-.37-1.47-1.53.05-4.66,0-9.32,0-14l0-19.7q0-23.29,0-46.61C387.53,158.76,387.5,158.55,387.49,158.35Z"/><path class="cls-7" d="M258.88,110.14c-5.62,0-11-1.14-15.72-4.51-6.92-4.95-9.9-11.72-9-20.19,1-9.27,8.77-16.77,18.49-18.5,6.69-1.2,13.29-.86,19.53,2.07,7.5,3.52,12.38,10.11,12.13,19C284,98.21,278,105.9,268.18,108.88A33.39,33.39,0,0,1,258.88,110.14Z"/><path class="cls-8" d="M265.14,32.91A34.28,34.28,0,0,1,279.88,36c3.46,1.64,7.13,2.75,10.57,4.41a17.59,17.59,0,0,1,7.35,6.35,7.55,7.55,0,0,1,1.16,5,2.76,2.76,0,0,1-2.62,2.7,8.75,8.75,0,0,1-7.45-2.8,22.52,22.52,0,0,0-8.27-5.4,49.43,49.43,0,0,1-5.84-2.77,16.92,16.92,0,0,0-10.29-1.58c-6,.78-12,1.76-17.55,4.47C242,48.76,237,51,232.81,54.64a129.3,129.3,0,0,0-9.72,9.87,7.37,7.37,0,0,0-1.52,2.7,4.23,4.23,0,0,1-5.45,3.08A7.66,7.66,0,0,1,213.19,69c-1.82-1.34-2.08-3-.76-4.8,3.43-4.75,6.86-9.51,10.5-14.1a11.87,11.87,0,0,1,1.41-1.59c8.11-7.11,17.12-12.5,28-13.92C256.9,34,261.36,32.75,265.14,32.91Z"/><path class="cls-9" d="M266.65,14.37c-.11,2.28-.21,4.56-.34,6.84s-1.21,3.7-2.91,4a4.83,4.83,0,0,1-4.65-3.08c-.63-1.77-.8-3.64-1.27-5.44-.88-3.42.11-6.81.16-10.21a18.72,18.72,0,0,1,.14-4.09C258.2.52,259-.15,260.94,0c3.29.3,5.17,2.19,5.58,5.63.07.66.17,1.32.18,2,0,2.24,0,4.49,0,6.73Z"/><path class="cls-8" d="M292,8.79a9.25,9.25,0,0,1-.52,4,41.1,41.1,0,0,1-3.86,8c-1.07,1.72-2.59,3.07-4.87,2.9a5,5,0,0,1-4.07-6.17,52.62,52.62,0,0,1,6.38-12.88c1.45-2.1,2.76-2.27,4.76-.69A5.09,5.09,0,0,1,292,8.79Z"/><path class="cls-8" d="M298.55,33.46c-4.11,0-6.34-3.59-4.55-7.09a33.93,33.93,0,0,1,8-10.55c1.64-1.39,3-1.5,4.75-.29,3,2.1,3.28,5,1.31,8.08a72.88,72.88,0,0,1-6.91,8.68A3.18,3.18,0,0,1,298.55,33.46Z"/><path class="cls-9" d="M239.41,9.45c3.28,0,5.35,1.63,6,4.77.87,4,1.76,8,2.37,12.08a4,4,0,0,1-1.54,3.85c-1.08.88-2.28.45-3.41,0a7.3,7.3,0,0,1-4.35-5.82q-1.16-5.79-2.2-11.61C235.93,10.54,237,9.43,239.41,9.45Z"/><path class="cls-8" d="M207,51.49c-5.34-.87-10.55-2.2-14.73-6a10.37,10.37,0,0,1-2.51-4.39,1.3,1.3,0,0,1,.25-1.17,4.44,4.44,0,0,1,4.45-1.72c5.4,1.25,10.46,3.21,14.79,6.81a3.47,3.47,0,0,1,1.47,3.58,3.27,3.27,0,0,1-2.43,2.72A9.61,9.61,0,0,1,207,51.49Z"/><path class="cls-9" d="M212.23,22a9.57,9.57,0,0,1,5.58,2.74,102.7,102.7,0,0,1,7.7,9,9.19,9.19,0,0,1,1,1.73,2.72,2.72,0,0,1-.14,2.95,3.18,3.18,0,0,1-3.08,1.27,8.92,8.92,0,0,1-5.33-2.72c-3-3.14-5.56-6.61-8.4-9.86a2.71,2.71,0,0,1-.6-3.21A3.32,3.32,0,0,1,212.23,22Z"/><path class="cls-10" d="M570,224.45l.54-.77c.56,0,.6.43.75.79Z"/><path class="cls-10" d="M570.51,223.57a.59.59,0,0,1-.28-.6C570.57,223.05,570.63,223.27,570.51,223.57Z"/></g></g></svg>